<?xml version="1.0" encoding="UTF-8"?>
<svg id="Layer_1" data-name="Layer 1" xmlns="http://www.w3.org/2000/svg" viewBox="0 0 984.72 389.74">
  <defs>
    <style>
      .cls-1 {
        fill: #3b8cae;
        stroke-width: 0px;
      }
    </style>
  </defs>
  <path class="cls-1" d="m98.94,0h90.27c11.52,0,19.89,10.79,16.85,21.72l-36.82,132.31c-.42,1.5.73,2.98,2.31,2.98h0c.9,0,1.72-.49,2.13-1.28L250.34,9.31c2.99-5.72,8.99-9.31,15.53-9.31h94.44c13.4,0,21.8,14.22,15.18,25.68l-95.39,164.94c-1.61,2.78-2.39,5.95-2.27,9.14l6.6,172.15c.37,9.74-7.55,17.83-17.45,17.83h-101.82c-9.87,0-17.78-8.03-17.46-17.74l4.51-137.4c.04-1.33-1.04-2.43-2.39-2.43h-.3c-1.08,0-2.03.71-2.31,1.74l-39.71,143.17c-2.07,7.47-8.97,12.66-16.85,12.66h-17.79c-48.03,0-82.91-44.93-70.27-90.51L82.09,12.66c2.07-7.47,8.97-12.66,16.85-12.66Z"/>
  <path class="cls-1" d="m332.25,258.9h84.51c11.57,0,19.94,10.86,16.82,21.82l-1.37,4.8c-3.12,10.96,5.25,21.82,16.82,21.82h1.01c7.87,0,14.77-5.18,16.85-12.65l8.35-30.02c2.39-8.61-2.32-17.59-10.84-20.67l-63.7-22.96c-47.72-17.26-61.52-35.63-47.15-87.97l13.8-50.11C382.87,26.73,417.95,0,476.02,0h113.27c58.07,0,78.77,26.73,62.67,82.96l-8.04,29.57c-2.04,7.52-8.96,12.74-16.87,12.74h-84.45c-11.52,0-19.89-10.78-16.85-21.71h0c3.04-10.93-5.33-21.71-16.85-21.71h-1.26c-7.83,0-14.7,5.12-16.81,12.53l-7.02,24.59c-2.46,8.6,2.2,17.62,10.7,20.74l63.73,23.42c47.72,17.26,62.1,35.63,47.15,87.41l-15.52,55.68c-15.52,55.68-50.6,83.52-108.67,83.52h-113.27c-58.07,0-78.77-26.73-62.67-82.96l10.2-35.39c2.13-7.39,8.99-12.49,16.8-12.49Z"/>
  <path class="cls-1" d="m808.02,20.29l-41.12,220.24c-.27,1.45.86,2.78,2.36,2.78h.05c1.01,0,1.91-.62,2.25-1.55L856.51,11.32c2.51-6.8,9.07-11.32,16.42-11.32h93.21c12.76,0,21.22,13.03,15.84,24.42l-167.77,355.38c-2.86,6.06-9.04,9.94-15.84,9.94h-70.97c-42.51,0-75.99-35.67-72.6-77.35l24.06-296.57c.72-8.93,8.3-15.81,17.41-15.81h94.58c10.91,0,19.15,9.73,17.18,20.29Z"/>
</svg>