<?xml version="1.0" encoding="UTF-8"?>
<svg id="Layer_1" data-name="Layer 1" xmlns="http://www.w3.org/2000/svg" viewBox="0 0 1076.87 322.43">
  <defs>
    <style>
      .cls-1 {
        fill: #fff;
        stroke-width: 0px;
      }
    </style>
  </defs>
  <path class="cls-1" d="m21.84,155.13h0c-1.05,3.47-1.75,7.51-1.75,12.14"/>
  <g>
    <g>
      <path class="cls-1" d="m724.43,83.82c-6.98,0-10.82,6.93-14.66,19.07l-12.22,37.56c-1.75,5.2-2.44,9.82-2.44,13.87,0,5.78,2.44,9.82,7.33,9.82,6.98,0,10.82-6.93,14.66-19.07l12.22-37.56c1.75-5.2,2.44-9.82,2.44-13.87-.35-5.78-2.79-9.82-7.33-9.82m53.4,42.18c-6.98,23.69-13.26,38.14-18.85,47.39-11.52,19.07-30.36,28.32-59.68,28.32-41.53,0-57.24-15.02-57.24-42.18,0-9.82,1.4-20.23,6.28-36.98,6.98-23.69,13.26-38.14,18.85-47.39,11.87-19.07,30.71-28.32,60.03-28.32,41.53,0,57.24,15.02,57.24,42.18-.35,9.82-1.75,20.23-6.63,36.98"/>
      <path class="cls-1" d="m550.97,79.19c0-23.11-13.26-32.36-49.56-32.36-32.81,0-46.42,8.67-56.19,24.85-6.98,11.56-10.82,25.43-10.82,36.41,0,16.76,5.24,22.54,24.08,30.63,19.89,8.09,23.73,9.82,23.73,17.34,0,8.09-4.54,12.14-12.22,12.14-6.98,0-10.12-3.47-10.12-9.25,0-2.89,0-4.05.7-6.36.35-1.73.7-4.05,1.4-5.78h-4.54s-38.04,0-38.04,0c-1.4,0-2.44,1.73-2.79,4.05-1.4,6.36-2.09,11.56-2.09,17.34,0,22.54,11.52,33.52,51.31,33.52,33.51,0,47.12-9.25,56.19-24.27,7.33-12.14,10.82-26,10.82-39.87,0-16.76-6.63-23.69-25.48-31.2-18.85-7.51-22.34-9.25-22.34-14.45,0-5.78,4.19-11.56,11.87-11.56,6.28,0,9.77,4.05,9.77,9.25,0,4.05-.7,7.51-1.75,10.98h41.53s0,0,.35,0c1.4,0,2.44-1.16,2.79-3.47h0c.7-5.2,1.4-12.14,1.4-17.91"/>
      <path class="cls-1" d="m178.57,50.88h-40.49s-.35,0-.35,0c-1.05,0-1.75.58-2.09,1.73l-43.28,64.72,19.2-59.52h0c.35-.58.35-1.73.35-2.31,0-2.89-1.4-5.2-2.79-5.2h-47.82c-1.05,0-2.09,1.16-2.44,2.31h0l-34.9,107.48h0c-1.05,3.47-1.75,7.51-1.75,12.14,0,13.87,6.98,25.43,15.36,25.43h.35s27.22,0,27.22,0h0c1.4,0,2.44-1.16,2.79-2.89l19.89-61.83,2.44,60.1c0,2.89,1.4,5.2,3.14,5.2h46.07c1.75,0,2.79-2.31,2.79-5.2v-.58s-5.24-69.34-5.24-69.34l43.28-63.57c.7-1.16,1.05-2.31,1.05-4.05,0-2.89-1.4-4.62-2.79-4.62"/>
      <path class="cls-1" d="m435.79,55.5c0-2.89-1.4-4.62-2.79-5.2h-37.34c-1.4,0-2.09,1.16-2.79,2.89l-18.5,59.52-8.03-57.79c0-2.31-1.4-4.05-2.79-4.05h-46.77c-1.4,0-2.44,1.16-2.79,3.47l-33.16,103.44c-1.75,5.2-2.79,9.25-2.79,15.02,0,13.87,6.98,25.43,15.36,25.43h16.75c1.4,0,2.44-1.16,2.79-2.89h0l20.24-65.3,8.38,64.14c.35,2.31,1.4,4.05,2.79,4.05h44.33c1.05,0,2.09-1.16,2.44-2.89l43.98-136.95c.35-.58.7-1.73.7-2.89"/>
      <path class="cls-1" d="m935.23,55.5c0-2.89-1.4-4.62-2.79-5.2h-37c-1.4,0-2.09,1.16-2.79,2.89l-18.5,59.52-7.68-58.94c-.35-2.31-1.4-4.05-2.79-4.05h-46.77c-1.4,0-2.44,1.16-2.79,3.47l-33.16,103.44c-1.75,5.2-2.79,9.25-2.79,15.02,0,13.87,6.98,25.43,15.36,25.43h16.75c1.4,0,2.44-1.16,2.79-2.89h0l20.24-65.3,8.38,64.14c.35,2.31,1.4,4.05,2.79,4.05h44.33c1.05,0,2.09-1.16,2.44-2.89h0l43.98-136.95c-.35.58,0-.58,0-1.73"/>
      <path class="cls-1" d="m296.53,50.88h-98.77c-1.4,0-2.44,1.16-2.79,3.47l-33.16,103.44c-1.4,4.62-2.79,9.25-2.79,15.02,0,13.87,6.98,25.43,15.36,25.43h.7s79.23,0,79.23,0h0c1.05,0,2.09-1.16,2.44-2.89l8.73-27.16c.35-.58.35-1.73.35-2.31,0-2.89-1.4-5.2-3.14-5.2h-50.61s6.28-18.49,6.28-18.49h48.51c1.05,0,2.09-1.16,2.44-2.89l8.38-26h0c.35-.58.35-1.16.35-2.31,0-2.89-1.4-5.2-3.14-5.2h-45.37s5.93-17.91,5.93-17.91h52.35c1.05,0,2.09-1.16,2.44-2.89l8.73-27.16c.35-.58.35-1.16.35-2.31,0-2.89-1.4-4.62-2.79-4.62"/>
      <path class="cls-1" d="m1052.15,50.88h-98.77c-1.4,0-2.44,1.16-2.79,3.47l-33.16,103.44c-1.4,4.62-2.79,9.25-2.79,15.02,0,13.87,6.98,25.43,15.36,25.43.35,0,79.92,0,79.92,0h0c1.05,0,2.09-1.16,2.44-2.89l8.73-27.16c.35-.58.35-1.73.35-2.31,0-2.89-1.4-5.2-3.14-5.2h-50.96s6.28-18.49,6.28-18.49h48.51c1.05,0,2.09-1.16,2.44-2.89l8.38-26h0c.35-.58.35-1.16.35-2.31,0-2.89-1.4-5.2-3.14-5.2h-45.37s5.93-17.91,5.93-17.91h52.35c1.05,0,2.09-1.16,2.44-2.89l8.73-27.16c.35-.58.35-1.16.35-2.31.35-2.89-.7-4.62-2.44-4.62"/>
      <path class="cls-1" d="m671.03,50.88h-101.56c-1.4,0-2.09,1.16-2.79,3.47l-8.73,27.16c-.35.58-.35,1.73-.35,2.31,0,2.89,1.4,5.2,3.14,5.2h25.48s-22.69,71.08-22.69,71.08c-1.4,4.05-2.09,8.09-2.09,13.29,0,13.87,6.98,25.43,15.36,25.43.35,0,20.24,0,28.62,0h.35c1.05,0,1.75-1.16,2.09-2.31,0,0,29.67-90.73,31.06-94.77,4.89-13.87,9.42-23.69,13.26-30.05,4.89-10.4,10.82-16.18,18.85-20.8Z"/>
    </g>
    <path class="cls-1" d="m588.25,222.85c1.83,0,3.23,1.62,2.97,3.43l-7.03,47.95h.94l15.35-49.27c.39-1.25,1.55-2.11,2.86-2.11h20.9c2.14,0,3.59,2.17,2.77,4.14l-29.47,71.31c-.39.95-1.32,1.56-2.34,1.56h-22.69c-6.21,0-11.16-5.19-10.87-11.39l2.92-62.77c.07-1.6,1.39-2.86,2.99-2.86h20.69Z"/>
    <path class="cls-1" d="m658.1,226.52l-16.41,71.38c-.26,1.15-1.29,1.96-2.47,1.96h-11.62c-6.99,0-12.17-6.5-10.61-13.32l14.11-61.37c.31-1.36,1.52-2.33,2.92-2.33h21.15c1.93,0,3.35,1.79,2.92,3.67Z"/>
    <path class="cls-1" d="m685.87,244.85l-1.41,6.38h16.94c1.93,0,3.36,1.8,2.92,3.68l-3.22,13.81c-.32,1.36-1.53,2.32-2.92,2.32h-18.34l-1.51,6.82h18.83c1.93,0,3.36,1.79,2.92,3.67l-3.78,16.37c-.27,1.15-1.29,1.96-2.47,1.96h-33.28c-6.99,0-12.17-6.5-10.61-13.32l14.11-61.37c.31-1.36,1.52-2.33,2.92-2.33h42.81c1.93,0,3.36,1.79,2.92,3.67l-3.7,16.01c-.31,1.36-1.53,2.32-2.92,2.32h-20.21Z"/>
    <path class="cls-1" d="m759.84,249.25h-7.47c-1.4,0-2.61.97-2.92,2.33l-10.6,46.31c-.26,1.15-1.29,1.97-2.47,1.97h-10.69c-6.99,0-12.17-6.5-10.61-13.31l7.7-33.63c.43-1.88-1-3.67-2.92-3.67h-4.71c-1.93,0-3.36-1.8-2.92-3.67l4.73-20.41c.31-1.36,1.53-2.32,2.92-2.32h44.69c1.93,0,3.36,1.8,2.92,3.67l-4.73,20.41c-.31,1.36-1.53,2.32-2.92,2.32Z"/>
    <path class="cls-1" d="m799.53,222.85h20.41c1.5,0,2.77,1.11,2.97,2.6l3.6,26.89h.57l6.24-27.16c.31-1.36,1.52-2.33,2.92-2.33h18.33c1.93,0,3.35,1.79,2.92,3.67l-16.54,71.94c-.19.82-.92,1.4-1.76,1.4h-21.99c-1.14,0-2.1-.84-2.25-1.97l-3.69-27.51h-.57l-6.53,28.41c-.14.63-.7,1.07-1.35,1.07h-9.72c-6.99,0-12.17-6.5-10.61-13.32l14.11-61.37c.31-1.36,1.52-2.33,2.92-2.33Z"/>
    <path class="cls-1" d="m914.24,225.96l-2.88,71.46c-.05,1.36-1.17,2.43-2.53,2.43h-21.22c-1.8,0-3.19-1.57-2.98-3.35l.43-3.64c.21-1.78-1.18-3.35-2.98-3.35h-5.32c-1.28,0-2.42.81-2.83,2.02l-2.28,6.58c-.36,1.04-1.34,1.74-2.45,1.74h-9.38c-7.78,0-13.04-7.92-10.04-15.09l25.2-60.08c.47-1.11,1.56-1.84,2.76-1.84h33.49c1.7,0,3.06,1.42,3,3.12Zm-26.71,45.95s3.01-25.96,3.01-25.96h-.94l-8.72,25.3c-.11.33.13.66.47.66h6.17Z"/>
    <path class="cls-1" d="m934.16,222.85h25.73c1.71,0,3.08,1.43,2.99,3.14l-1.45,30.75h.94l13.08-32.02c.46-1.13,1.56-1.86,2.78-1.86h26.05c1.93,0,3.35,1.79,2.92,3.67l-16.41,71.38c-.26,1.15-1.29,1.96-2.47,1.96h-17.85c-1.93,0-3.35-1.79-2.92-3.67l7.26-31.65h-.94l-13.92,33.47c-.47,1.12-1.56,1.85-2.77,1.85h-8.81c-1.71,0-3.07-1.42-3-3.13l1.37-32.19h-.94l-7.65,33.35c-.26,1.15-1.29,1.97-2.47,1.97h-7.95c-6.99,0-12.17-6.5-10.61-13.32l14.11-61.37c.31-1.36,1.52-2.33,2.92-2.33Z"/>
  </g>
</svg>