<?xml version="1.0" encoding="UTF-8"?>
<svg id="Layer_1" data-name="Layer 1" xmlns="http://www.w3.org/2000/svg" viewBox="0 0 482.36 219.52">
  <defs>
    <style>
      .cls-1 {
        fill: #3b8cae;
        stroke-width: 0px;
      }
    </style>
  </defs>
  <path class="cls-1" d="m86.81,35.41h36.41c4.65,0,8.02,4.42,6.79,8.91l-14.85,54.25c-.17.61.29,1.22.93,1.22h0c.36,0,.69-.2.86-.52l30.93-60.03c1.21-2.34,3.62-3.82,6.26-3.82h38.09c5.4,0,8.8,5.83,6.12,10.53l-38.47,67.63c-.65,1.14-.97,2.44-.92,3.75l2.66,70.58c.15,3.99-3.04,7.31-7.04,7.31h-41.07c-3.98,0-7.17-3.29-7.04-7.27l1.82-56.34c.02-.55-.42-1-.97-1h-.12c-.44,0-.82.29-.93.71l-16.02,58.7c-.84,3.06-3.62,5.19-6.8,5.19h-7.17c-19.37,0-33.44-18.42-28.34-37.11l32.06-117.5c.84-3.06,3.62-5.19,6.8-5.19Z"/>
  <path class="cls-1" d="m180.91,141.56h34.09c4.67,0,8.04,4.45,6.78,8.95l-.55,1.97c-1.26,4.49,2.12,8.95,6.78,8.95h.41c3.17,0,5.96-2.12,6.8-5.19l3.37-12.31c.97-3.53-.93-7.21-4.37-8.47l-25.69-9.41c-19.25-7.08-24.81-14.61-19.02-36.07l5.57-20.55c6.26-23.06,20.41-34.01,43.83-34.01h45.69c23.42,0,31.77,10.96,25.28,34.01l-3.24,12.12c-.82,3.08-3.62,5.23-6.81,5.23h-34.06c-4.65,0-8.02-4.42-6.8-8.9h0c1.23-4.48-2.15-8.9-6.8-8.9h-.51c-3.16,0-5.93,2.1-6.78,5.14l-2.83,10.08c-.99,3.53.89,7.22,4.32,8.5l25.7,9.6c19.25,7.08,25.05,14.61,19.02,35.84l-6.26,22.83c-6.26,22.83-20.41,34.24-43.83,34.24h-45.69c-23.42,0-31.77-10.96-25.28-34.01l4.11-14.51c.86-3.03,3.63-5.12,6.78-5.12Z"/>
  <path class="cls-1" d="m372.82,43.73l-16.58,90.3c-.11.59.35,1.14.95,1.14h.02c.41,0,.77-.25.91-.64l34.26-94.48c1.01-2.79,3.66-4.64,6.62-4.64h37.6c5.15,0,8.56,5.34,6.39,10.01l-67.67,145.71c-1.15,2.49-3.65,4.08-6.39,4.08h-28.63c-17.15,0-30.65-14.62-29.28-31.72l9.71-121.6c.29-3.66,3.35-6.48,7.02-6.48h38.15c4.4,0,7.72,3.99,6.93,8.32Z"/>
</svg>