<?xml version="1.0" encoding="utf-8"?>
<!-- Generator: Adobe Illustrator 18.1.1, SVG Export Plug-In . SVG Version: 6.00 Build 0)  -->
<svg version="1.1" id="Ebene_1" xmlns="http://www.w3.org/2000/svg" xmlns:xlink="http://www.w3.org/1999/xlink" x="0px" y="0px"
	 viewBox="0 0 296.5 26.8" enable-background="new 0 0 296.5 26.8" xml:space="preserve">
<g>
	<path fill="#FFFFFF" d="M201.6,6.4c-2,0-3.1,1.2-4.2,3.3l-3.5,6.5c-0.5,0.9-0.7,1.7-0.7,2.4c0,1,0.7,1.7,2.1,1.7
		c2,0,3.1-1.2,4.2-3.3l3.5-6.5c0.5-0.9,0.7-1.7,0.7-2.4C203.6,7.1,202.9,6.4,201.6,6.4 M216.9,13.7c-2,4.1-3.8,6.6-5.4,8.2
		c-3.3,3.3-8.7,4.9-17.1,4.9c-11.9,0-16.4-2.6-16.4-7.3c0-1.7,0.4-3.5,1.8-6.4c2-4.1,3.8-6.6,5.4-8.2C188.6,1.6,194,0,202.4,0
		c11.9,0,16.4,2.6,16.4,7.3C218.7,9,218.3,10.8,216.9,13.7"/>
	<path fill="#FFFFFF" d="M151.9,5.6c0-4-3.8-5.6-14.2-5.6c-9.4,0-13.3,1.5-16.1,4.3c-2,2-3.1,4.4-3.1,6.3c0,2.9,1.5,3.9,6.9,5.3
		c5.7,1.4,6.8,1.7,6.8,3c0,1.4-1.3,2.1-3.5,2.1c-2,0-2.9-0.6-2.9-1.6c0-0.5,0-0.7,0.2-1.1c0.1-0.3,0.2-0.7,0.4-1h-1.3l-10.9,0
		c-0.4,0-0.7,0.3-0.8,0.7c-0.4,1.1-0.6,2-0.6,3c0,3.9,3.3,5.8,14.7,5.8c9.6,0,13.5-1.6,16.1-4.2c2.1-2.1,3.1-4.5,3.1-6.9
		c0-2.9-1.9-4.1-7.3-5.4c-5.4-1.3-6.4-1.6-6.4-2.5c0-1,1.2-2,3.4-2c1.8,0,2.8,0.7,2.8,1.6c0,0.7-0.2,1.3-0.5,1.9l11.9,0
		c0,0,0,0,0.1,0c0.4,0,0.7-0.2,0.8-0.6c0,0,0,0,0,0C151.7,7.8,151.9,6.6,151.9,5.6"/>
	<path fill="#FFFFFF" d="M45.2,0.7L45.2,0.7l-11.6,0c0,0-0.1,0-0.1,0c-0.3,0-0.5,0.1-0.6,0.3L20.5,12.2L26,1.9v0
		c0.1-0.1,0.1-0.3,0.1-0.4c0-0.5-0.4-0.9-0.8-0.9h0c0,0-13.7,0-13.7,0c-0.3,0-0.6,0.2-0.7,0.4l0,0L0.9,19.6l0,0
		c-0.3,0.6-0.5,1.3-0.5,2.1c0,2.4,2,4.4,4.4,4.4c0,0,0.1,0,0.1,0l0,0h7.8l0,0c0,0,0,0,0,0c0.4,0,0.7-0.2,0.8-0.5l5.7-10.7
		c0,0,0.7,10.4,0.7,10.4c0,0.5,0.4,0.9,0.9,0.9H34c0.5,0,0.8-0.4,0.8-0.9c0,0,0,0,0-0.1l-1.5-12L45.7,2.2C45.9,2,46,1.8,46,1.5
		C46,1,45.6,0.7,45.2,0.7"/>
	<path fill="#FFFFFF" d="M118.9,1.5c0-0.5-0.4-0.8-0.8-0.9v0c0,0-10.7,0-10.7,0c-0.4,0-0.6,0.2-0.8,0.5l-5.3,10.3L99,1.4
		C99,1,98.6,0.7,98.2,0.7l0,0H84.8v0c0,0,0,0,0,0c-0.4,0-0.7,0.2-0.8,0.6l-9.5,17.9c-0.5,0.9-0.8,1.6-0.8,2.6c0,2.4,2,4.4,4.4,4.4
		c0,0,4.8,0,4.8,0v0c0.4,0,0.7-0.2,0.8-0.5v0l5.8-11.3l2.4,11.1c0.1,0.4,0.4,0.7,0.8,0.7c0,0,0,0,0,0v0l12.7,0v0
		c0.3,0,0.6-0.2,0.7-0.5l12.6-23.7C118.8,1.9,118.9,1.7,118.9,1.5"/>
	<path fill="#FFFFFF" d="M262,1.5c0-0.5-0.4-0.8-0.8-0.9l0,0h-10.6l0,0c0,0,0,0,0,0c-0.4,0-0.6,0.2-0.8,0.5l-5.3,10.3l-2.2-10.2
		c-0.1-0.4-0.4-0.7-0.8-0.7l0,0h-13.4v0c0,0,0,0,0,0c-0.4,0-0.7,0.2-0.8,0.6l-9.5,17.9c-0.5,0.9-0.8,1.6-0.8,2.6
		c0,2.4,2,4.4,4.4,4.4c0,0,4.8,0,4.8,0v0c0.4,0,0.7-0.2,0.8-0.5v0l5.8-11.3l2.4,11.1c0.1,0.4,0.4,0.7,0.8,0.7c0,0,12.7,0,12.7,0v0
		c0.3,0,0.6-0.2,0.7-0.5l0,0l12.6-23.7C261.9,1.9,262,1.7,262,1.5"/>
	<path fill="#FFFFFF" d="M79,0.7C79,0.7,79,0.7,79,0.7L79,0.7c0,0-28.3,0-28.3,0c-0.4,0-0.7,0.2-0.8,0.6l-9.5,17.9
		c-0.4,0.8-0.8,1.6-0.8,2.6c0,2.4,2,4.4,4.4,4.4c0.1,0,0.1,0,0.2,0c0,0,0,0,0,0h22.7l0,0c0.3,0,0.6-0.2,0.7-0.5l2.5-4.7
		c0.1-0.1,0.1-0.3,0.1-0.4c0-0.5-0.4-0.9-0.9-0.9l0,0H54.8l1.8-3.2h13.9v0c0.3,0,0.6-0.2,0.7-0.5l2.4-4.5v0c0.1-0.1,0.1-0.2,0.1-0.4
		c0-0.5-0.4-0.9-0.9-0.9h0l0,0h-13l1.7-3.1l15,0c0.3,0,0.6-0.2,0.7-0.5l2.5-4.7c0.1-0.1,0.1-0.2,0.1-0.4C79.8,1,79.4,0.7,79,0.7"/>
	<path fill="#FFFFFF" d="M295.5,0.7C295.5,0.7,295.5,0.7,295.5,0.7L295.5,0.7c0,0-28.3,0-28.3,0c-0.4,0-0.7,0.2-0.8,0.6l-9.5,17.9
		c-0.4,0.8-0.8,1.6-0.8,2.6c0,2.4,2,4.4,4.4,4.4c0.1,0,22.9,0,22.9,0l0,0c0.3,0,0.6-0.2,0.7-0.5l2.5-4.7c0.1-0.1,0.1-0.3,0.1-0.4
		c0-0.5-0.4-0.9-0.9-0.9l0,0h-14.6l1.8-3.2l13.9,0c0.3,0,0.6-0.2,0.7-0.5l2.4-4.5v0c0.1-0.1,0.1-0.2,0.1-0.4c0-0.5-0.4-0.9-0.9-0.9
		h0l0,0h-13l1.7-3.1l15,0c0.3,0,0.6-0.2,0.7-0.5l2.5-4.7c0.1-0.1,0.1-0.2,0.1-0.4C296.3,1,296,0.7,295.5,0.7"/>
	<g>
		<path fill="#FFFFFF" d="M186.3,0.7h-29.1c0,0,0,0,0,0c-0.4,0-0.6,0.2-0.8,0.6l-2.5,4.7c-0.1,0.1-0.1,0.3-0.1,0.4
			c0,0.5,0.4,0.9,0.9,0.9c0,0,0,0,0,0h7.3l-6.5,12.3c-0.4,0.7-0.6,1.4-0.6,2.3c0,2.4,2,4.4,4.4,4.4c0.1,0,5.8,0,8.2,0
			c0.1,0,0.1,0,0.1,0c0.3,0,0.5-0.2,0.6-0.4c0,0,8.5-15.7,8.9-16.4c1.4-2.4,2.7-4.1,3.8-5.2C182.3,2.5,184,1.5,186.3,0.7z"/>
	</g>
</g>
</svg>
